<?xml version="1.0" encoding="iso-8859-1"?>
<!-- Generator: Adobe Illustrator 16.0.0, SVG Export Plug-In . SVG Version: 6.00 Build 0)  -->
<!DOCTYPE svg PUBLIC "-//W3C//DTD SVG 1.1//EN" "http://www.w3.org/Graphics/SVG/1.1/DTD/svg11.dtd">
<svg version="1.1" id="Capa_1" xmlns="http://www.w3.org/2000/svg" xmlns:xlink="http://www.w3.org/1999/xlink" x="0px" y="0px"
	 width="381.76px" height="381.759px" viewBox="0 0 381.76 381.759" style="enable-background:new 0 0 381.76 381.759;"
	 xml:space="preserve">
<g>
	<g>
		<path d="M167.882,322.253c0,0,34.692-34.705,40.625-40.625c5.909-5.92,3.597-89.978,16.699-103.08
			C238.307,165.43,381.76,21.976,381.76,21.976L363.765,3.982c0,0-143.967,143.967-156.566,156.555
			c-12.588,12.594-103.325,5.681-108.72,11.087c-5.389,5.407-40.607,40.619-40.607,40.619L167.882,322.253z"/>
		<path d="M0,287.537l3.959,3.959c1.745-1.775,3.479-3.538,5.225-5.301c12.325-12.168,24.691-24.289,34.208-33.141
			c9.505-8.852,15.986-14.619,15.986-14.619s-5.751,6.492-14.608,15.998c-8.851,9.527-20.972,21.883-33.134,34.213
			c-1.781,1.74-3.544,3.48-5.325,5.221l2.511,2.51c1.746-1.775,3.468-3.538,5.226-5.324c12.331-12.156,24.697-24.289,34.202-33.141
			c9.517-8.839,15.998-14.596,15.998-14.596s-5.751,6.469-14.614,15.998c-8.846,9.504-20.972,21.883-33.134,34.201
			c-1.77,1.74-3.538,3.48-5.308,5.221l2.762,2.768c1.746-1.787,3.468-3.539,5.226-5.313c12.325-12.168,24.68-24.288,34.196-33.14
			c9.517-8.852,15.998-14.62,15.998-14.62s-5.763,6.493-14.608,16.009c-8.851,9.518-20.972,21.872-33.134,34.203
			c-1.781,1.752-3.538,3.479-5.325,5.22l2.131,2.125c1.745-1.763,3.479-3.538,5.226-5.313
			c12.325-12.167,24.691-24.288,34.208-33.139c9.522-8.852,16.003-14.62,16.003-14.62s-5.716,6.539-14.579,16.056
			c-8.845,9.518-20.972,21.883-33.134,34.203c-1.781,1.751-3.538,3.479-5.319,5.23l1.6,1.6c1.746-1.763,3.48-3.526,5.226-5.312
			C40,292.535,52.36,280.414,61.877,271.562c9.511-8.839,15.992-14.596,15.992-14.596s-5.757,6.48-14.603,15.998
			c-8.852,9.517-20.972,21.883-33.134,34.201c-1.781,1.752-3.538,3.48-5.307,5.232l2.248,2.242c1.746-1.764,3.48-3.527,5.226-5.313
			c12.325-12.156,24.691-24.288,34.208-33.128c9.517-8.852,15.998-14.62,15.998-14.62s-5.739,6.481-14.585,15.998
			c-8.852,9.517-20.978,21.883-33.134,34.214c-1.787,1.752-3.544,3.479-5.325,5.23l1.997,1.986c1.746-1.764,3.48-3.527,5.237-5.302
			c12.331-12.179,24.68-24.3,34.214-33.14c9.505-8.852,15.998-14.597,15.998-14.597s-5.763,6.481-14.614,15.997
			c-8.846,9.518-20.96,21.884-33.134,34.215c-1.781,1.752-3.538,3.479-5.307,5.219l2.499,2.5c1.746-1.764,3.48-3.527,5.226-5.313
			c12.325-12.167,24.691-24.288,34.208-33.14c9.517-8.852,15.998-14.619,15.998-14.619s-5.751,6.492-14.608,16.009
			c-8.851,9.517-20.972,21.871-33.134,34.202c-1.78,1.752-3.538,3.48-5.312,5.231l2.504,2.511c1.746-1.787,3.462-3.539,5.22-5.325
			c12.331-12.155,24.697-24.276,34.214-33.128s15.998-14.619,15.998-14.619s-5.751,6.492-14.614,15.997
			c-8.845,9.528-20.972,21.883-33.134,34.202c-1.769,1.764-3.539,3.492-5.307,5.243l2.248,2.242
			c1.746-1.774,3.468-3.526,5.226-5.302c12.331-12.168,24.691-24.288,34.208-33.139c9.523-8.852,16.003-14.621,16.003-14.621
			s-5.769,6.493-14.602,16.01c-8.851,9.518-20.972,21.883-33.134,34.203c-1.781,1.763-3.538,3.502-5.307,5.242l2.376,2.371
			c1.746-1.775,3.48-3.527,5.226-5.313c12.331-12.155,24.68-24.276,34.214-33.128c9.505-8.852,15.998-14.619,15.998-14.619
			s-5.751,6.48-14.614,15.997c-8.845,9.528-20.972,21.883-33.134,34.214c-1.792,1.752-3.55,3.479-5.319,5.231l2.376,2.37
			c1.746-1.787,3.468-3.538,5.226-5.312c12.331-12.168,24.68-24.289,34.202-33.141c9.517-8.851,15.998-14.607,15.998-14.607
			s-5.763,6.48-14.614,15.998c-8.846,9.517-20.972,21.883-33.134,34.201c-1.781,1.752-3.538,3.48-5.319,5.221l1.746,1.739
			c1.746-1.774,3.468-3.526,5.226-5.313c12.325-12.155,24.691-24.287,34.208-33.127c9.517-8.852,15.998-14.62,15.998-14.62
			s-5.751,6.481-14.608,15.997c-8.852,9.518-20.978,21.883-33.134,34.215c-1.77,1.739-3.544,3.491-5.313,5.219l1.354,1.367
			c1.746-1.775,3.48-3.527,5.226-5.302c12.325-12.167,24.691-24.288,34.208-33.14c9.505-8.852,15.998-14.619,15.998-14.619
			s-5.763,6.492-14.608,16.021c-8.851,9.517-20.966,21.883-33.134,34.214c-1.786,1.74-3.544,3.479-5.313,5.22l2.12,2.113
			c1.746-1.774,3.468-3.526,5.226-5.325c12.325-12.155,24.691-24.288,34.208-33.127c9.517-8.852,15.998-14.608,15.998-14.608
			s-5.751,6.492-14.608,15.997c-8.852,9.518-20.979,21.883-33.134,34.215c-1.77,1.751-3.544,3.479-5.313,5.219l1.605,1.6
			c1.746-1.774,3.468-3.525,5.226-5.301c12.325-12.168,24.691-24.289,34.208-33.14c9.517-8.851,15.998-14.62,15.998-14.62
			s-5.751,6.492-14.608,15.998c-8.851,9.528-20.978,21.883-33.134,34.214c-1.786,1.763-3.544,3.503-5.313,5.243l1.869,1.856
			c1.746-1.763,3.468-3.526,5.226-5.302c12.325-12.167,24.679-24.288,34.208-33.139c9.517-8.852,15.997-14.608,15.997-14.608
			s-5.762,6.48-14.607,15.997c-8.84,9.518-20.979,21.883-33.134,34.215c-1.77,1.763-3.544,3.49-5.313,5.219l1.617,1.611
			c1.746-1.774,3.468-3.525,5.226-5.312c12.325-12.156,24.68-24.289,34.196-33.128c9.517-8.852,15.998-14.62,15.998-14.62
			s-5.763,6.48-14.608,15.998c-8.851,9.517-20.978,21.883-33.134,34.214c-1.769,1.751-3.544,3.491-5.325,5.231l1.483,1.471
			c1.746-1.763,3.468-3.525,5.226-5.301c12.331-12.168,24.68-24.289,34.214-33.14c9.517-8.852,15.998-14.608,15.998-14.608
			s-5.763,6.48-14.614,15.998c-8.845,9.517-20.972,21.883-33.134,34.202c-1.781,1.763-3.538,3.479-5.319,5.231l4.087,4.075
			l61.76-61.761L61.76,225.789L0,287.537z"/>
	</g>
</g>
<g>
</g>
<g>
</g>
<g>
</g>
<g>
</g>
<g>
</g>
<g>
</g>
<g>
</g>
<g>
</g>
<g>
</g>
<g>
</g>
<g>
</g>
<g>
</g>
<g>
</g>
<g>
</g>
<g>
</g>
</svg>
