<?xml version="1.0" encoding="iso-8859-1"?>
<!-- Generator: Adobe Illustrator 16.0.0, SVG Export Plug-In . SVG Version: 6.00 Build 0)  -->
<!DOCTYPE svg PUBLIC "-//W3C//DTD SVG 1.1//EN" "http://www.w3.org/Graphics/SVG/1.1/DTD/svg11.dtd">
<svg version="1.1" id="Capa_1" xmlns="http://www.w3.org/2000/svg" xmlns:xlink="http://www.w3.org/1999/xlink" x="0px" y="0px"
	 width="379.81px" height="379.81px" viewBox="0 0 379.81 379.81" style="enable-background:new 0 0 379.81 379.81;"
	 xml:space="preserve">
<g>
	<path d="M329.154,142.711C329.154,64.02,266.683,0,189.911,0C113.134,0,50.656,64.02,50.656,142.711
		c0,47.579,22.84,89.78,57.883,115.726c1.734,11.047,4.56,23.553,6.492,34.389c2.978,16.641,9.114,12.039,18.217,12.25
		c7.018,0.187,37.366,0.91,50.912,1.238v16.511h-3.743v44.373h-31.569v12.611h82.942v-12.611h-31.062v-21.276
		c4.087,0.537,11.49,1.332,19.127,1.332c5.862-0.012,11.888-0.479,16.699-1.893c8.15-2.381,10.158-6.889,9.318-10.322
		c-1.238-5.044-8.175-7.8-15.788-6.305c-10.206,1.996-26.133,0.373-29.356,0.023v-5.921h-4.881v-16.558
		c14.258-0.352,42.318-1.04,49.044-1.203c9.108-0.223,15.228,4.379,18.216-12.25c1.834-10.381,4.531-22.314,6.26-33.034
		C305.497,233.963,329.154,191.113,329.154,142.711z M231.184,334.211c5.384-1.062,8.944,0.875,9.26,2.148
		c0.141,0.642-0.992,2.323-5.465,3.631c-10.381,3.036-27.92,1.121-34.237,0.258v-5.852
		C205.261,334.876,220.64,336.289,231.184,334.211z M82.342,142.711c0-60.878,48.25-110.389,107.558-110.389
		c59.313,0,107.563,49.522,107.563,110.389c0,33.42-14.573,63.424-37.53,83.661c-1.261-0.081-2.627-0.128-4.203-0.128
		c-14.013,0-14.363-1.74-14.363-17.691c0-15.928-7.053-22.245-22.771-22.245c-12.658,0-25.135,0.683-29.543,0.958
		c-4.402-0.274-16.896-0.958-29.549-0.958c-15.724,0-22.765,6.317-22.765,22.245c0,15.951-0.351,17.691-14.375,17.691
		c-0.911,0-1.769,0.023-2.598,0.047C96.874,206.031,82.342,176.097,82.342,142.711z M232.095,286.859c-10.661,0-32.918,0-41.36,0
		c0,0-1.244,0-3.334,0c-8.442,0-30.682,0-41.36,0c-13.312,0,0-18.216,4.21-18.216c3.421,0,28.071,0.233,37.15,0.315v0.035
		c0,0,0.607-0.012,1.676-0.023c1.062,0.012,1.67,0.023,1.67,0.023v-0.035c9.096-0.082,33.735-0.315,37.156-0.315
		C232.095,268.644,245.418,286.859,232.095,286.859z M270.699,250.019c0.292-2.744,0.443-5.325,0.443-7.672
		c0-7.356-0.42-11.514-3.258-13.756c22.479-21.439,36.608-52.016,36.608-85.891c0-64.738-51.403-117.396-114.582-117.396
		c-63.173,0-114.576,52.658-114.576,117.396c0,33.542,13.838,63.821,35.931,85.237c-3.742,2.031-4.279,6.258-4.279,14.409
		c0,1.915,0.122,3.993,0.309,6.2c-30.226-24.884-49.622-63.08-49.622-105.847c0-74.833,59.319-135.706,132.249-135.706
		S322.172,67.867,322.172,142.7C322.148,186.32,301.993,225.17,270.699,250.019z"/>
</g>
<g>
</g>
<g>
</g>
<g>
</g>
<g>
</g>
<g>
</g>
<g>
</g>
<g>
</g>
<g>
</g>
<g>
</g>
<g>
</g>
<g>
</g>
<g>
</g>
<g>
</g>
<g>
</g>
<g>
</g>
</svg>
