<?xml version="1.0" encoding="iso-8859-1"?>
<!-- Generator: Adobe Illustrator 16.0.0, SVG Export Plug-In . SVG Version: 6.00 Build 0)  -->
<!DOCTYPE svg PUBLIC "-//W3C//DTD SVG 1.1//EN" "http://www.w3.org/Graphics/SVG/1.1/DTD/svg11.dtd">
<svg version="1.1" id="Capa_1" xmlns="http://www.w3.org/2000/svg" xmlns:xlink="http://www.w3.org/1999/xlink" x="0px" y="0px"
	 width="381.453px" height="381.452px" viewBox="0 0 381.453 381.452" style="enable-background:new 0 0 381.453 381.452;"
	 xml:space="preserve">
<g>
	<path d="M379.577,84.576c-1.704,0.012-8.792,0.076-19.325,0.158l-3.362-47.602l-43.112-1.699c0,0-0.141,11.07,0.081,12.185
		c0.223,1.086-20.68,12.267-13.125,12.208c0.864,0,1.811-0.012,2.838-0.012v1.851h26.227v-2.043c0.643,0,1.25-0.012,1.834-0.012
		c8.793,0-9.19-10.258-9.073-11.625c0.116-1.349-0.07-3.322-0.07-3.322L347.792,46l-5.908,38.873
		c-43.007,0.374-111.341,0.946-144.662,1.232c-12.103,0.111-10.118,7.426-3.888,12.208c6.229,4.788,74.482,57.159,74.482,57.159
		s-86.212,123.637-94.702,124.782c-8.512,1.12-50.124-12.249-50.124-12.249l5.675-7.953l9.844,2.056
		c0,0,84.781-111.166,88.472-118.534c3.689-7.38-9.774-14.17-20.143-1.997c-10.346,12.196-25.795,30.349-25.795,30.349
		s-99.092-13.008-103.541-13.008c-4.449,0-10.153,0.198-13.405,5.418c-3.264,5.231-31.05,49.838-31.05,49.838
		s-11.911-5.395-22.122-5.395c-10.212,0-15.583,16.441-5.669,16.441s93.516,25.654,93.516,25.654l-5.891,9.785l-8.787-7.088
		l-9.079,3.398l62.408,72.842l-10.802,16.207h123.655l74.851-192.257l31.75-20.984C356.889,132.791,389.491,84.494,379.577,84.576z"
		/>
</g>
<g>
</g>
<g>
</g>
<g>
</g>
<g>
</g>
<g>
</g>
<g>
</g>
<g>
</g>
<g>
</g>
<g>
</g>
<g>
</g>
<g>
</g>
<g>
</g>
<g>
</g>
<g>
</g>
<g>
</g>
</svg>
