<?xml version="1.0" encoding="iso-8859-1"?>
<!-- Generator: Adobe Illustrator 16.0.0, SVG Export Plug-In . SVG Version: 6.00 Build 0)  -->
<!DOCTYPE svg PUBLIC "-//W3C//DTD SVG 1.1//EN" "http://www.w3.org/Graphics/SVG/1.1/DTD/svg11.dtd">
<svg version="1.1" id="Capa_1" xmlns="http://www.w3.org/2000/svg" xmlns:xlink="http://www.w3.org/1999/xlink" x="0px" y="0px"
	 width="31.721px" height="31.721px" viewBox="0 0 31.721 31.721" style="enable-background:new 0 0 31.721 31.721;"
	 xml:space="preserve">
<g>
	<g>
		<path d="M8.458,23.506c-0.001,0.016-0.003,0.029-0.003,0.029l8.29-9.117l0.51-0.022l0.252-1.626l10.63-10.329
			c-3.548,3.081-12.257,10.65-12.671,11.1c-3.666,3.007-8.561,2.837-8.979,2.816c-0.451-0.082-0.925-0.094-1.409-0.021
			c-1.164,0.173-2.249,0.791-3.052,1.737c-1.572,1.851-1.639,4.439-0.157,6.021c0.099,0.104,0.205,0.205,0.314,0.298
			c1.769,1.504,4.579,1.113,6.262-0.869C8.448,23.518,8.452,23.512,8.458,23.506z M3.064,23.354
			c-0.071-0.061-0.139-0.125-0.202-0.192c-1.008-1.076-0.921-2.884,0.201-4.205c0.59-0.695,1.376-1.146,2.214-1.271
			c0.804-0.121,1.558,0.078,2.125,0.56c0.071,0.062,0.139,0.125,0.202,0.192c1.008,1.076,0.922,2.883-0.2,4.205
			C6.208,24.05,4.26,24.369,3.064,23.354z"/>
		<path d="M15.186,25.904c-0.021-0.358-0.256-5.217,2.722-8.945c0.545-0.516,12.846-15.977,12.846-15.977L30.922,0l-13.08,12.999
			l-0.299,2.196l-9.333,8.76c-0.065,0.052-0.133,0.102-0.196,0.156c-1.959,1.707-2.313,4.521-0.787,6.271
			c0.051,0.059,0.104,0.115,0.157,0.17c1.569,1.594,4.276,1.551,6.164-0.095C14.945,29.24,15.521,27.46,15.186,25.904z
			 M12.535,29.297c-1.316,1.146-3.166,1.189-4.147,0.073c-0.966-1.11-0.68-2.948,0.639-4.099c1.275-1.11,3.054-1.187,4.052-0.174
			c0.032,0.033,0.064,0.067,0.094,0.103C14.14,26.309,13.854,28.146,12.535,29.297z M18.346,14.457
			c-0.235-0.24-0.232-0.624,0.007-0.86c0.238-0.235,0.625-0.233,0.859,0.006c0.235,0.239,0.232,0.625-0.007,0.86
			C18.966,14.698,18.582,14.695,18.346,14.457z"/>
	</g>
</g>
<g>
</g>
<g>
</g>
<g>
</g>
<g>
</g>
<g>
</g>
<g>
</g>
<g>
</g>
<g>
</g>
<g>
</g>
<g>
</g>
<g>
</g>
<g>
</g>
<g>
</g>
<g>
</g>
<g>
</g>
</svg>
