<?xml version="1.0" encoding="iso-8859-1"?>
<!-- Generator: Adobe Illustrator 16.0.0, SVG Export Plug-In . SVG Version: 6.00 Build 0)  -->
<!DOCTYPE svg PUBLIC "-//W3C//DTD SVG 1.1//EN" "http://www.w3.org/Graphics/SVG/1.1/DTD/svg11.dtd">
<svg version="1.1" id="Capa_1" xmlns="http://www.w3.org/2000/svg" xmlns:xlink="http://www.w3.org/1999/xlink" x="0px" y="0px"
	 width="380.758px" height="380.758px" viewBox="0 0 380.758 380.758" style="enable-background:new 0 0 380.758 380.758;"
	 xml:space="preserve">
<g>
	<g>
		<path d="M182.833,47.931c0,0,17.592,29.415,20.266,63.559l23.658,22.881c-6.096-18.134-16.943-35.51-16.943-35.51
			s0.292-101.246-68.802-98.817C71.895,2.472,50.684,114.607,50.076,127.954c-0.613,13.33,1.816,33.338,1.816,33.338
			s-6.066,1.215-5.454,6.668c0.596,5.465,5.751,10.918,6.061,15.163c0.31,4.25-12.733,3.34-12.121,9.108
			c0.607,5.746,9.096,7.871,7.876,12.121c-1.221,4.238-17.574,8.793-16.967,23.039c0.613,14.258,25.158,27.593,26.664,43.648
			c1.519,16.057-21.521,26.063-23.64,43.042c-2.114,16.968,28.183,27.278,28.498,42.738c0.298,15.448-20.008,23.938-20.008,23.938
			s53.043-0.911,33.951-61.234c-3.34-6.061,30.308-39.096,18.794-70.32c11.514-8.489,0-27.896,0-27.896s11.741-9.4,11.514-25.76
			c-0.228-16.371-11.514-37.285-11.514-37.285s25.754-46.382,33.934-67.295C157.99,101.587,182.833,47.931,182.833,47.931z"/>
		<path d="M259.219,314.665c0-18.776-29.706-35.147-29.706-35.147s10.603-19.699,7.274-36.971
			c-3.339-17.281-22.14-29.11-23.039-38.803c-0.257-2.721,1.121-6.224,3.118-10.241l-30.775-30.781
			c-3.748,10.463-6.521,20.727-6.294,27.687C180.41,208.895,204.652,248,204.652,248s-13.026,14.234-13.937,29.1
			c-0.911,14.854,11.508,54.264,41.226,61.83c-9.996,16.676,4.25,23.027,4.25,23.027s26.659,3.34,15.753-27.266
			C247.997,331.947,259.219,333.465,259.219,314.665z"/>
		<path d="M348.794,265.353c-3.293-3.234-167.958-165.955-169.925-167.905c-1.974-1.95-4.735-0.239-6.709,1.746
			c-1.962,1.997-20.569,21.608-23.272,24.347c2.896,3.503,5.407,2.943,7.497,0.812c2.119-2.137,16.179-16.377,16.179-16.377
			s0.671,0.666,1.915,1.897l-16.874,17.078l2.271,2.26l16.885-17.089c0.572,0.572,1.22,1.22,1.915,1.892l-16.885,17.072l2.283,2.26
			l16.885-17.084c0.631,0.619,1.279,1.267,1.985,1.962l-16.885,17.083l2.283,2.248l16.885-17.072
			c0.607,0.595,1.255,1.243,1.915,1.886l-16.885,17.089l2.283,2.248l16.885-17.078c0.525,0.514,1.062,1.04,1.611,1.594
			l-16.879,17.072l2.283,2.259l16.885-17.083c0.63,0.619,1.255,1.244,1.909,1.897l-16.885,17.078l2.289,2.248l16.879-17.089
			c0.671,0.66,1.343,1.331,2.008,1.997l-16.867,17.09l2.283,2.248l16.874-17.089c0.63,0.625,1.261,1.244,1.903,1.892l-16.874,17.089
			l2.283,2.26l16.879-17.089c0.654,0.66,1.32,1.29,1.985,1.961l-16.879,17.072l2.283,2.253l16.885-17.089
			c0.631,0.619,1.261,1.255,1.903,1.886l-16.873,17.089l2.282,2.26l16.868-17.072c0.525,0.514,1.074,1.051,1.611,1.576
			l-16.885,17.083l2.289,2.254l16.885-17.089c0.63,0.619,1.261,1.255,1.915,1.886l-16.885,17.089l2.289,2.26l16.896-17.025
			c0.525,0.525,1.062,1.051,1.6,1.588l-16.873,17.09l2.277,2.259l16.885-17.089c0.642,0.625,1.272,1.244,1.915,1.892l-16.885,17.095
			l2.289,2.254l16.874-17.089c0.665,0.642,1.319,1.302,1.984,1.95L215.78,184.43l2.277,2.254l16.874-17.083
			c0.643,0.619,1.284,1.244,1.915,1.886l-16.874,17.089l2.277,2.254l16.874-17.089c0.549,0.525,1.086,1.062,1.623,1.588
			l-16.886,17.089l2.277,2.254l16.873-17.084c0.643,0.637,1.273,1.255,1.916,1.892l-16.886,17.083l2.289,2.265l16.896-17.083
			c0.525,0.514,1.039,1.039,1.576,1.553l-16.896,17.083l2.289,2.242l16.873-17.083c0.643,0.631,1.272,1.261,1.915,1.892
			l-16.885,17.084l2.288,2.253l16.886-17.095c0.525,0.537,1.074,1.074,1.611,1.6l-16.885,17.084l2.288,2.241l16.886-17.083
			c0.642,0.63,1.272,1.261,1.914,1.88l-16.885,17.083l2.289,2.301l16.885-17.083c38.967,38.5,75.972,75.037,77.058,76.123
			C342.757,276.143,352.075,268.6,348.794,265.353z"/>
	</g>
</g>
<g>
</g>
<g>
</g>
<g>
</g>
<g>
</g>
<g>
</g>
<g>
</g>
<g>
</g>
<g>
</g>
<g>
</g>
<g>
</g>
<g>
</g>
<g>
</g>
<g>
</g>
<g>
</g>
<g>
</g>
</svg>
