<?xml version="1.0" encoding="iso-8859-1"?>
<!-- Generator: Adobe Illustrator 16.0.0, SVG Export Plug-In . SVG Version: 6.00 Build 0)  -->
<!DOCTYPE svg PUBLIC "-//W3C//DTD SVG 1.1//EN" "http://www.w3.org/Graphics/SVG/1.1/DTD/svg11.dtd">
<svg version="1.1" id="Capa_1" xmlns="http://www.w3.org/2000/svg" xmlns:xlink="http://www.w3.org/1999/xlink" x="0px" y="0px"
	 width="333.988px" height="333.988px" viewBox="0 0 333.988 333.988" style="enable-background:new 0 0 333.988 333.988;"
	 xml:space="preserve">
<g>
	<path d="M333.988,184.937c0-33.005-3.223-65.246-41.664-65.246H126.282L71.756,66.636c3.503-9.143,1.366-19.909-6.277-26.939
		c-10.019-9.231-25.625-8.571-34.844,1.436c-9.231,10.007-8.601,25.625,1.425,34.856c7.362,6.767,17.708,8.18,26.366,4.507
		l44.338,39.206H41.658C3.217,119.691,0,151.931,0,184.937c0,32.999,3.217,65.24,41.658,65.24h208.676l57.264,50.632l2.277-2.476
		l-49.499-48.156h31.948C330.766,250.165,333.988,217.936,333.988,184.937z M295.313,128.84
		c24.779,1.518,29.823,20.984,29.823,56.097c0,35.102-5.021,54.567-29.823,56.085V128.84z M36.578,240.823
		c-22.945-2.499-27.727-21.813-27.727-55.887c0-34.085,4.782-53.394,27.727-55.893V240.823z M255.051,144.861h19.887V178h-19.887
		V144.861z M221.911,144.861h19.898V178h-19.898V144.861z M210.001,201.168l-7.146-6.96h7.146V201.168z M189.753,144.861h19.886V178
		h-19.886V144.861z M156.619,144.861h19.892v23.705l-19.892-19.349V144.861z M57.445,144.861h19.88V178h-19.88V144.861z
		 M77.699,227.348H57.813v-33.14h19.886V227.348z M90.591,144.861h19.88V178h-19.88V144.861z M110.833,227.348H90.947v-33.14h19.886
		V227.348z M124.466,144.861h6.767l13.102,11.589V178h-19.881v-33.14H124.466z M144.72,227.348h-19.886v-33.14h19.886V227.348z
		 M156.619,167.304l12.091,10.708h-12.091V167.304z M176.873,227.348h-19.886v-33.14h19.886V227.348z M190.126,227.348V196.94
		l19.875,17.574v12.833H190.126z M222.273,227.348v-1.984l2.254,1.984H222.273z M222.273,213.102v-18.905h19.886v33.14h-5.255
		L222.273,213.102z M275.299,227.348h-19.874v-33.14h19.874V227.348z"/>
</g>
<g>
</g>
<g>
</g>
<g>
</g>
<g>
</g>
<g>
</g>
<g>
</g>
<g>
</g>
<g>
</g>
<g>
</g>
<g>
</g>
<g>
</g>
<g>
</g>
<g>
</g>
<g>
</g>
<g>
</g>
</svg>
