<?xml version="1.0" encoding="iso-8859-1"?>
<!-- Generator: Adobe Illustrator 16.0.0, SVG Export Plug-In . SVG Version: 6.00 Build 0)  -->
<!DOCTYPE svg PUBLIC "-//W3C//DTD SVG 1.1//EN" "http://www.w3.org/Graphics/SVG/1.1/DTD/svg11.dtd">
<svg version="1.1" id="Capa_1" xmlns="http://www.w3.org/2000/svg" xmlns:xlink="http://www.w3.org/1999/xlink" x="0px" y="0px"
	 width="572.264px" height="572.265px" viewBox="0 0 572.264 572.265" style="enable-background:new 0 0 572.264 572.265;"
	 xml:space="preserve">
<g>
	<g>
		<path d="M195.216,274.425l-47.77-3.616l8.393,5.669c0,0,11.983,2.706,29.903,6.742c-1.518,1.669-2.857,3.294-3.732,4.848
			c-0.241,0.402-0.473,1.098-0.732,1.956h34.689c7.223,1.634,14.625,3.286,22.367,5c10.589-1.661,21.447-3.348,32.162-5h3.125
			c0.018-0.161,0.045-0.348,0.062-0.491c13.875-2.143,27.429-4.223,39.662-6.089l-38.554-2.929
			c9.384-74.627,29.572-229.999-34.376-256.241c-21.117-8.491-72.922-33.849-118.709-20.429
			C27.889,29.497,21.183,159.813,21.183,159.813s-10.572,206.963,5.884,261.679c16.456,54.733,86.824,150.772,86.824,150.772
			s9.349-268.205,1.116-284.214c-54.716-29.59-63.654-123.959-63.654-123.959s61.422-4.867,99.405-2.143
			c37.983,2.723,99.423-2.116,99.423-2.116s4.036,33.876-9.715,65.145C230.726,247.049,209.6,262.379,195.216,274.425z"/>
		<path d="M496.155,315.488c-0.107,0-0.179,0-0.268,0c0.143-0.089,0.285-0.161,0.285-0.161l-135.594-10.214l-13.661,13.857
			c8.964,1.894,14.84,3.071,16.107,3.179c52.056,11.68,83.86,57.287,84.753,58.592c8.018,15.035,24.787,25.822,44.609,26.643
			c28.357,1.144,52.287-18.5,53.34-43.84C546.746,338.222,524.512,316.649,496.155,315.488z M492.958,392.509
			c-20.161-0.84-35.982-15.447-35.269-32.555c0.714-17.125,17.679-30.394,37.841-29.555c20.143,0.84,35.982,15.43,35.287,32.555
			C530.12,380.062,513.137,393.331,492.958,392.509z"/>
		<path d="M498.333,298.827c0.911,0.107,1.805,0.232,2.715,0.25c28.358,1.143,52.287-18.492,53.342-43.814
			c1.035-25.34-21.197-46.885-49.574-48.055c-20.232-0.839-38.162,8.938-47.18,23.822c-2.535,3.018-37.145,43.305-88.734,50.511
			c-8.197,0-210.517,32.126-210.517,32.126l-8.197,5.072l189.409-1.322l18.929-19.161L498.333,298.827z M504.208,222.075
			c20.161,0.821,35.983,15.456,35.269,32.563c-0.714,17.117-17.679,30.376-37.822,29.555c-20.18-0.839-35.983-15.456-35.305-32.555
			C467.065,234.513,484.047,221.253,504.208,222.075z M332.846,308.952c-4.322-0.195-7.697-3.839-7.537-8.178
			c0.197-4.322,3.84-7.697,8.18-7.5c4.339,0.161,7.696,3.822,7.535,8.144C340.846,305.738,337.167,309.113,332.846,308.952z"/>
	</g>
</g>
<g>
</g>
<g>
</g>
<g>
</g>
<g>
</g>
<g>
</g>
<g>
</g>
<g>
</g>
<g>
</g>
<g>
</g>
<g>
</g>
<g>
</g>
<g>
</g>
<g>
</g>
<g>
</g>
<g>
</g>
</svg>
