<?xml version="1.0" encoding="iso-8859-1"?>
<!-- Generator: Adobe Illustrator 16.0.0, SVG Export Plug-In . SVG Version: 6.00 Build 0)  -->
<!DOCTYPE svg PUBLIC "-//W3C//DTD SVG 1.1//EN" "http://www.w3.org/Graphics/SVG/1.1/DTD/svg11.dtd">
<svg version="1.1" id="Capa_1" xmlns="http://www.w3.org/2000/svg" xmlns:xlink="http://www.w3.org/1999/xlink" x="0px" y="0px"
	 width="578.323px" height="578.322px" viewBox="0 0 578.323 578.322" style="enable-background:new 0 0 578.323 578.322;"
	 xml:space="preserve">
<g>
	<g>
		<polygon points="295.813,501.018 295.813,499.91 296.01,499.945 333.065,332.547 295.67,324.262 265.009,462.694 124.343,462.694 
			124.343,501.018 187.417,501.018 179.443,546.019 122.522,546.019 103.066,575.18 321.975,575.18 302.51,546.019 241.945,546.019 
			233.954,501.018 		"/>
		<path d="M246.553,131.88c32.242,0,58.368,26.135,58.368,58.368c0,32.242-26.125,58.368-58.368,58.368
			c-32.233,0-58.368-26.126-58.368-58.368C188.185,158.015,214.319,131.88,246.553,131.88z"/>
		<path d="M131.201,448.087h32.68h51.68h34.76c0,0,30.519-149.345,33.902-165.8c3.385-16.456,1.956-24.43-8.955-24.528
			c-10.974-0.089-54.716,0-54.716,0v0.018l-0.125-0.036c0,0-47.314,99.843-89.297,97.163c-22.84,0.322-22.18,23.68,24.063,25.197
			c10.644,0.357,21.322-5.41,31.457-14.41l-7.956,28.68c-29.626-0.036-67.681,0.143-76.252,1.32
			c-11.92,1.644-66.324,90.004-85.065,121.005H0v26.358h84.94v-26.358h-1.393L131.201,448.087z"/>
		<path d="M516.428,3.143c34.18,0,61.895,28.555,61.895,63.779c0,35.233-27.715,63.788-61.895,63.788
			c-34.198,0-61.913-28.555-61.913-63.788C454.515,31.698,482.23,3.143,516.428,3.143z"/>
		<path d="M557.125,158.086c-22.375-18.179-66.717-11.652-86.039-6.224c-14.857,4.188-41.572,21.528-70.43,35.733v-0.232
			c8.107-5.634,13.428-14.965,13.428-25.572c0-17.17-13.91-31.063-31.072-31.063c-3.321,0-6.5,0.509-9.518,1.482
			c-20.857,0-60.306,0-64.127,0c-5.215,0-4.357,28.376,0,28.376c2.25,0,23.18,0,42.626,0c-0.018,0.402-0.071,0.804-0.071,1.206
			c0,15.438,11.232,28.179,26.001,30.617v5.268c-1.196,0.455-2.394,1.018-3.554,1.455l-4.607,26.26c0,0,3.107-1.152,8.161-2.973
			v7.402c-2.214,2.322-3.554,5.447-3.554,8.902c0,7.188,5.857,13,13.143,13c1.982,0,3.894-0.456,5.59-1.259l3.447-2.339
			c2.535-2.375,4.107-5.723,4.107-9.402c0-1.536-0.287-2.956-0.769-4.331h0.769V214.48c31-10.518,74.217-23.661,73.895-15.214
			c-0.535,13.179-5.107,147.246,0.035,151.638l0,0l-10.589,98.094l9.375,96.502H446.05v28.359h92.86v-6.126V545.5V363.191
			c10.893-2.144,19.215-7.912,20.644-19.858C564.09,305.797,582.073,178.363,557.125,158.086z M383.012,150.425
			c2.34,0,4.5,0.706,6.305,1.902h-12.59C378.53,151.13,380.691,150.425,383.012,150.425z M375.405,153.363h15.215
			c0.822,0.732,1.5,1.571,2.036,2.509h-19.322C373.922,154.934,374.62,154.095,375.405,153.363z M372.797,156.898h20.466
			c0.393,0.821,0.714,1.696,0.893,2.643h-22.269C372.083,158.595,372.37,157.72,372.797,156.898z M371.672,161.792
			c0-0.402,0.019-0.804,0.055-1.206h22.572c0.035,0.402,0.07,0.804,0.07,1.206c0,0.536-0.035,1.08-0.106,1.598H371.78
			C371.727,162.854,371.672,162.327,371.672,161.792z M371.995,164.408h22.055c-0.197,0.866-0.5,1.688-0.894,2.455H372.87
			C372.495,166.095,372.191,165.274,371.995,164.408z M373.477,167.899h19.09c-0.518,0.866-1.197,1.652-1.947,2.304h-15.143
			C374.691,169.551,374.03,168.765,373.477,167.899z M376.798,171.247h12.446c-1.768,1.188-3.946,1.884-6.232,1.884
			C380.727,173.131,378.584,172.453,376.798,171.247z"/>
	</g>
</g>
<g>
</g>
<g>
</g>
<g>
</g>
<g>
</g>
<g>
</g>
<g>
</g>
<g>
</g>
<g>
</g>
<g>
</g>
<g>
</g>
<g>
</g>
<g>
</g>
<g>
</g>
<g>
</g>
<g>
</g>
</svg>
