<?xml version="1.0" encoding="iso-8859-1"?>
<!-- Generator: Adobe Illustrator 16.0.0, SVG Export Plug-In . SVG Version: 6.00 Build 0)  -->
<!DOCTYPE svg PUBLIC "-//W3C//DTD SVG 1.1//EN" "http://www.w3.org/Graphics/SVG/1.1/DTD/svg11.dtd">
<svg version="1.1" id="Capa_1" xmlns="http://www.w3.org/2000/svg" xmlns:xlink="http://www.w3.org/1999/xlink" x="0px" y="0px"
	 width="585.163px" height="585.163px" viewBox="0 0 585.163 585.163" style="enable-background:new 0 0 585.163 585.163;"
	 xml:space="preserve">
<g>
	<g>
		<path d="M249.481,133.487c32.617,0,59.064,26.447,59.064,59.064s-26.447,59.064-59.064,59.064
			c-32.626,0-59.064-26.447-59.064-59.064S216.855,133.487,249.481,133.487z"/>
		<path d="M522.536,3.214c34.59,0,62.627,28.894,62.627,64.529c0,35.644-28.037,64.538-62.627,64.538
			c-34.591,0-62.627-28.894-62.627-64.538C459.909,32.108,487.945,3.214,522.536,3.214z"/>
		<path d="M563.715,159.988c-22.645-18.42-61.984-8.143-81.521-2.679c-16.768,6.438-44.501,12.893-77.787,15.732
			c-1.375-20.009-2.465-35.572-2.697-39.188l0.09-0.036l-4.019-25.563l-7.196,1.152l-4.536-28.912l-4.196,0.661l3.09,19.67
			l-1.769,0.294l-3.089-19.697l-2.894,0.456l3.071,19.697l-1.768,0.294l-3.09-19.715l-2.964,0.473l3.089,19.679l-1.768,0.295
			l-3.107-19.715l-2.893,0.438l3.107,19.697l-1.786,0.294l-3.071-19.697l-3.232,0.491l3.071,19.697l-1.768,0.295l-3.089-19.715
			l-2.875,0.456l3.07,19.715l-1.785,0.277l-3.072-19.697l-2.945,0.438l3.07,19.715l-1.768,0.294l-3.071-19.715l-2.894,0.473
			l3.072,19.697l-1.785,0.277l-3.072-19.697l-3.5,0.527l3.09,19.715l-1.769,0.295l-3.106-19.715l-2.857,0.438l3.07,19.715
			l-1.75,0.276l-3.106-19.697l-2.964,0.473l3.07,19.697l-1.75,0.259l-3.071-19.679l-2.893,0.438l3.071,19.697l-1.768,0.312
			l-3.09-19.715l-3.215,0.509l3.072,19.679l-1.785,0.294l-3.072-19.697l-3.679,0.58l4.536,28.912l-5.25,0.822l4.018,25.59h0.054
			c2.786,11.081,34.501,137.862,36.626,151.523c2.25,14.286,56.162,3.161,54.342-8.545c-0.947-5.947-3.965-46.591-6.68-84.958
			c33.877-2.982,74.967-5.688,74.771-1.116c-0.518,13.331-6.375,147.353-1.179,151.817l-10.696,99.254l9.464,97.628h-27.607v28.697
			h93.896v-6.161v-22.519V367.53c11.053-2.16,19.482-8.018,20.929-20.09C570.733,309.438,588.965,180.461,563.715,159.988z
			 M370.727,174.578l-5.912-0.241c0.697-0.652,1.5-1.152,2.375-1.277c1.412-0.241,2.822,0.384,4.215,1.482
			C371.172,174.542,370.958,174.578,370.727,174.578z M327.654,133.978l65.181-10.242l0.715,4.411l-65.199,10.241L327.654,133.978z"
			/>
		<path d="M69.814,482.23c6.072,1.019,12.25,1.964,18.492,2.894c0.661,0.07,1.295,0.178,1.956,0.268
			c28.947,4.232,59.288,7.304,86.985,8.268c1.67,0.107,3.259,0.125,4.902,0.179c3.509,0.089,6.946,0.144,10.349,0.179
			c0.973,0,2,0.035,2.964,0.035c1.223,0,2.357-0.035,3.562-0.053c1.919,0,3.848-0.036,5.706-0.072
			c2.348-0.07,4.652-0.143,6.92-0.268c1.839-0.071,3.669-0.143,5.446-0.25c2.197-0.125,4.295-0.285,6.402-0.446
			c1.714-0.161,3.438-0.304,5.116-0.464c2.009-0.215,3.946-0.447,5.848-0.697c1.598-0.231,3.188-0.428,4.67-0.678
			c1.866-0.286,3.598-0.643,5.375-1c1.366-0.286,2.777-0.536,4.081-0.84c1.732-0.41,3.304-0.893,4.911-1.357
			c1.116-0.339,2.286-0.625,3.366-1c1.652-0.553,3.107-1.214,4.571-1.875c0.768-0.339,1.67-0.643,2.402-1.018
			c2.081-1.054,3.947-2.196,5.536-3.447c0.821-0.606,1.625-1.428,2.375-2.356c0.331-0.394,0.589-0.857,0.902-1.269
			c0.438-0.606,0.893-1.178,1.312-1.91c0.331-0.535,0.643-1.215,0.973-1.857c0.366-0.678,0.732-1.321,1.081-2.071
			c0.321-0.696,0.616-1.519,0.911-2.286c0.312-0.803,0.643-1.518,0.929-2.357c0.294-0.803,0.571-1.714,0.848-2.607
			c0.268-0.893,0.562-1.75,0.839-2.678c0.268-0.893,0.491-1.893,0.75-2.857c0.268-0.982,0.544-1.965,0.804-3.035
			c0.214-0.965,0.419-1.965,0.661-2.965c0.25-1.143,0.491-2.286,0.75-3.482c0.179-0.982,0.366-2,0.527-3.018
			c0.241-1.322,0.491-2.607,0.714-3.965c0.161-0.965,0.295-1.946,0.438-2.947c0.223-1.463,0.438-2.945,0.66-4.445
			c0.107-0.965,0.232-1.93,0.367-2.875c0.195-1.662,0.401-3.287,0.598-4.965c0.09-0.875,0.188-1.768,0.277-2.679
			c0.195-1.821,0.383-3.661,0.562-5.554c0.062-0.768,0.133-1.572,0.205-2.357c0.178-2,0.348-4.036,0.509-6.072
			c0.036-0.75,0.099-1.481,0.151-2.231c0.161-2.161,0.286-4.321,0.438-6.519c0.036-0.571,0.054-1.16,0.09-1.768
			c0.125-2.393,0.259-4.768,0.384-7.197c0.018-0.428,0.036-0.928,0.054-1.375c0.089-2.553,0.223-5.089,0.295-7.643
			c0.018-0.375,0.018-0.732,0.053-1.09c0.054-2.66,0.125-5.321,0.205-8c0-0.089,0-0.178,0-0.25l0,0
			c0.697-31.555-0.401-63.181-2.195-84.512c0-0.018,0-0.036,0-0.036c-0.019-0.196-0.036-0.384-0.055-0.598
			c-0.169-2.036-0.365-3.973-0.535-5.822c-0.09-0.786-0.16-1.5-0.25-2.232c-0.134-1.223-0.259-2.411-0.384-3.491
			c-0.116-0.714-0.206-1.384-0.276-2.045c-0.144-1.08-0.295-2.036-0.438-2.964c-0.072-0.527-0.17-1.08-0.26-1.554
			c-0.214-1.321-0.438-2.527-0.696-3.491c-2.17-1.536-4.625-2.741-7.241-3.768c-0.125-0.054-0.232-0.143-0.366-0.188
			c-2.634-1-5.447-1.768-8.375-2.375c-0.072-0.018-0.125-0.036-0.179-0.036c-0.018,0-0.036,0-0.054,0
			c-20.34-4.134-46.484,0.348-57.788,0.348c-5.17,2.777-10.188,26.555-18.099,52.851c-1.027,3.375-2.089,6.768-3.206,10.16
			c-0.018,0.107-0.054,0.18-0.071,0.25c-2.339,7.107-4.902,14.162-7.75,20.93c0,0,0,0-0.018,0.018
			c-1.411,3.34-2.893,6.59-4.482,9.715c-0.036,0.107-0.089,0.215-0.152,0.304c-1.572,3.144-3.232,6.107-4.974,8.929
			c0,0.036-0.036,0.09-0.053,0.125c-5.322,8.625-11.429,15.625-18.581,19.912c0,0,0,0,0.027,0
			c-5.599,3.357-11.795,5.071-18.751,4.445C69.216,379.941-7.277,469.159,69.814,482.23z"/>
		<path d="M299.331,505.839l0.162,0.053l37.519-169.416l-37.858-8.357l-2.786,12.661c0.894,58.466-3.393,130.737-22.438,145.647
			c-12.742,9.947-39.171,15.001-78.467,15.001c-20.537,0-44.511-1.464-69.654-4.126v9.608h63.841l-8.081,45.537h-57.609
			l-19.688,29.501H325.76l-19.679-29.501h-61.279l-8.09-45.537h62.6v-1.071H299.331z"/>
		<path d="M134.478,381.405c0.75,0.072,1.464,0.107,2.196,0.107c18.965,0,32.198-24.322,41.725-50.537
			c-14.259,16.465-30.331,29.144-45.716,28.126C114.182,359.405,110.977,374.584,134.478,381.405z"/>
		<path d="M68.591,489.499c-11.099-1.875-19.036-5.197-24.724-9.18c-10.697,16.876-20.295,32.591-26.295,42.537H0v26.645h85.949
			v-26.645h-1.411l19.474-28.072C92.235,493.249,80.386,491.481,68.591,489.499z"/>
	</g>
</g>
<g>
</g>
<g>
</g>
<g>
</g>
<g>
</g>
<g>
</g>
<g>
</g>
<g>
</g>
<g>
</g>
<g>
</g>
<g>
</g>
<g>
</g>
<g>
</g>
<g>
</g>
<g>
</g>
<g>
</g>
</svg>
