<?xml version="1.0" encoding="iso-8859-1"?>
<!-- Generator: Adobe Illustrator 16.0.0, SVG Export Plug-In . SVG Version: 6.00 Build 0)  -->
<!DOCTYPE svg PUBLIC "-//W3C//DTD SVG 1.1//EN" "http://www.w3.org/Graphics/SVG/1.1/DTD/svg11.dtd">
<svg version="1.1" id="Capa_1" xmlns="http://www.w3.org/2000/svg" xmlns:xlink="http://www.w3.org/1999/xlink" x="0px" y="0px"
	 width="566.162px" height="566.162px" viewBox="0 0 566.162 566.162" style="enable-background:new 0 0 566.162 566.162;"
	 xml:space="preserve">
<g>
	<g>
		<path d="M118.012,290.778c-0.33-24.34-17.117-55.421-17.117-55.421s38.305-68.958,50.466-100.066
			c42.376,15.759,79.333-64.002,79.333-64.002s32.438,54.091,30.644,111.763c-4.714,9.036-28.563,57.386-34.045,87.869
			l49.993,27.019c3.768-15.366,26.224-40.823,24.581-70.708c-1.785-33.349-31.09-80.217-31.09-80.217S271.213-3.517,168.46,0.063
			C65.733,3.706,34.188,170.435,33.286,190.284c-0.893,19.822,2.688,49.573,2.688,49.573s-9.009,1.804-8.099,9.911
			c0.884,8.116,8.563,16.232,9.018,22.545c0.438,6.304-18.947,4.956-18.027,13.527c0.893,8.562,13.527,11.706,11.715,18.027
			c-1.804,6.286-26.126,13.071-25.233,34.251c0.893,21.162,37.412,41.002,39.644,64.895c2.268,23.858-32.001,38.752-35.144,64.002
			c-3.143,25.216,41.912,40.573,42.367,63.557c0.456,22.982-29.733,35.59-29.733,35.59s78.869-1.339,50.475-91.039
			c-4.956-9,45.073-58.145,27.938-104.557c17.135-12.625,0-41.483,0-41.483S118.36,315.118,118.012,290.778z"/>
		<path d="M533.784,465.177c1.447-4.946,1.697-10.446-2.678-13.376c-9.215-6.143-332.342-191.738-351.512-198.452
			c-19.161-6.697-29.983,6.089-29.983,6.089l7.821,4.027l-4.473,10.072l206.516,114.548l3.607-7l136.844,77.788l-145.451-61.395
			l3.339-7.072l-46.323-20.143c-0.018-1.43,0.072-2.822-0.053-4.251l-69.717-36.358c2.224,4.59,4.491,9.036,6.706,13.215
			l-107.191-46.608l-5.268,9.661l-7.956-3.75c0,0-3.545,16.375,13.438,27.482c6.054,4,53.913,24.876,113.325,50.217
			c-5.429,8.232-11.634,20-12.384,32.18c-1.348,22.072,17.134,80.662,61.315,91.932c-14.867,24.786,6.303,34.269,6.303,34.269
			s39.662,4.946,23.447-40.556c-5.857-4.07,10.822-1.82,10.822-29.75c0-27.947-44.162-52.288-44.162-52.288
			s2.946-5.679,5.857-14.036c96.771,40.895,201.186,84.253,206.882,86.182c4.482,1.5,8.357-1.196,11.304-4.786l27.395,14.108
			l9.285-18.001L533.784,465.177z"/>
	</g>
</g>
<g>
</g>
<g>
</g>
<g>
</g>
<g>
</g>
<g>
</g>
<g>
</g>
<g>
</g>
<g>
</g>
<g>
</g>
<g>
</g>
<g>
</g>
<g>
</g>
<g>
</g>
<g>
</g>
<g>
</g>
</svg>
