<?xml version="1.0" encoding="iso-8859-1"?>
<!-- Generator: Adobe Illustrator 16.0.0, SVG Export Plug-In . SVG Version: 6.00 Build 0)  -->
<!DOCTYPE svg PUBLIC "-//W3C//DTD SVG 1.1//EN" "http://www.w3.org/Graphics/SVG/1.1/DTD/svg11.dtd">
<svg version="1.1" id="Capa_1" xmlns="http://www.w3.org/2000/svg" xmlns:xlink="http://www.w3.org/1999/xlink" x="0px" y="0px"
	 width="380.757px" height="380.758px" viewBox="0 0 380.757 380.758" style="enable-background:new 0 0 380.757 380.758;"
	 xml:space="preserve">
<g>
	<g>
		<path d="M290.059,178.171c5.349-8.045,63.77-96.062,63.77-96.062l-11.023-7.333c0,0-58.666,88.32-63.792,96.056
			c-5.126,7.736-52.15,13.551-54.346,16.879c-2.219,3.305-16.558,24.919-16.558,24.919l67.493,44.793
			c0,0,14.142-21.275,16.57-24.907C294.555,228.896,284.723,186.217,290.059,178.171z"/>
		<path d="M186.349,257.039l2.417,1.611c0.701-1.086,1.396-2.16,2.114-3.27c5.056-7.474,10.106-14.936,14.064-20.424
			c3.936-5.488,6.668-9.096,6.668-9.096s-2.277,3.899-5.821,9.68c-3.526,5.757-8.454,13.324-13.382,20.879
			c-0.729,1.074-1.437,2.137-2.178,3.223l1.547,1.016c0.719-1.086,1.396-2.16,2.114-3.258c5.032-7.473,10.13-14.935,14.053-20.423
			c3.936-5.5,6.668-9.108,6.668-9.108s-2.277,3.912-5.815,9.68c-3.532,5.77-8.425,13.324-13.364,20.867
			c-0.741,1.086-1.454,2.148-2.195,3.224l1.693,1.132c0.718-1.086,1.413-2.16,2.119-3.246c5.057-7.473,10.124-14.935,14.071-20.435
			c3.935-5.488,6.656-9.108,6.656-9.108s-2.265,3.912-5.792,9.681c-3.55,5.757-8.454,13.323-13.394,20.879
			c-0.742,1.074-1.448,2.137-2.166,3.211l1.296,0.864c0.7-1.086,1.407-2.16,2.113-3.246c5.033-7.474,10.106-14.947,14.03-20.436
			c3.958-5.512,6.679-9.107,6.679-9.107s-2.265,3.9-5.815,9.68c-3.515,5.769-8.431,13.324-13.376,20.879
			c-0.73,1.074-1.448,2.137-2.167,3.211l0.97,0.654c0.729-1.074,1.413-2.16,2.131-3.234c5.039-7.485,10.106-14.936,14.042-20.436
			c3.946-5.488,6.667-9.119,6.667-9.119s-2.265,3.9-5.792,9.68c-3.55,5.769-8.454,13.336-13.388,20.891
			c-0.742,1.062-1.448,2.125-2.178,3.199l1.378,0.923c0.707-1.086,1.407-2.16,2.114-3.258c5.044-7.474,10.101-14.923,14.047-20.423
			c3.936-5.5,6.656-9.109,6.656-9.109s-2.254,3.912-5.792,9.693c-3.538,5.768-8.442,13.322-13.382,20.878
			c-0.724,1.086-1.431,2.148-2.172,3.212l1.232,0.816c0.683-1.086,1.395-2.172,2.108-3.246c5.044-7.473,10.112-14.946,14.036-20.435
			c3.958-5.5,6.667-9.108,6.667-9.108s-2.254,3.912-5.804,9.657c-3.515,5.792-8.442,13.347-13.382,20.89
			c-0.724,1.074-1.436,2.126-2.16,3.212l1.542,1.027c0.701-1.098,1.413-2.172,2.102-3.258c5.044-7.474,10.136-14.946,14.059-20.435
			c3.947-5.5,6.679-9.097,6.679-9.097s-2.289,3.899-5.815,9.669c-3.55,5.768-8.442,13.335-13.394,20.878
			c-0.724,1.087-1.436,2.149-2.16,3.224l1.53,1.027c0.712-1.098,1.401-2.172,2.114-3.258c5.033-7.474,10.112-14.947,14.059-20.436
			c3.958-5.5,6.644-9.107,6.644-9.107s-2.253,3.9-5.792,9.656c-3.515,5.78-8.442,13.336-13.37,20.891
			c-0.747,1.074-1.436,2.148-2.195,3.223l1.401,0.911c0.689-1.086,1.39-2.161,2.102-3.247c5.033-7.473,10.101-14.934,14.059-20.434
			c3.936-5.488,6.668-9.098,6.668-9.098s-2.277,3.889-5.815,9.669c-3.538,5.757-8.454,13.323-13.382,20.879
			c-0.736,1.086-1.46,2.137-2.16,3.212l1.459,0.969c0.689-1.074,1.401-2.16,2.114-3.246c5.032-7.474,10.089-14.947,14.035-20.424
			c3.947-5.5,6.68-9.119,6.68-9.119s-2.266,3.899-5.815,9.68c-3.538,5.769-8.454,13.336-13.382,20.879
			c-0.724,1.074-1.459,2.137-2.172,3.211l1.46,0.98c0.688-1.098,1.389-2.16,2.125-3.246c5.044-7.473,10.077-14.935,14.036-20.435
			c3.946-5.488,6.655-9.12,6.655-9.12s-2.241,3.912-5.804,9.681c-3.514,5.769-8.442,13.335-13.37,20.89
			c-0.736,1.075-1.448,2.138-2.184,3.212l1.063,0.712c0.712-1.086,1.39-2.172,2.137-3.258c5.044-7.473,10.077-14.935,14.047-20.423
			c3.936-5.5,6.656-9.108,6.656-9.108s-2.266,3.912-5.804,9.681c-3.526,5.78-8.454,13.335-13.394,20.878
			c-0.712,1.074-1.436,2.16-2.16,3.224l0.806,0.549c0.724-1.087,1.425-2.173,2.137-3.247c5.045-7.484,10.089-14.946,14.036-20.445
			c3.959-5.5,6.668-9.098,6.668-9.098s-2.266,3.9-5.804,9.669s-8.442,13.335-13.382,20.879c-0.724,1.074-1.437,2.148-2.172,3.223
			l1.308,0.841c0.701-1.074,1.401-2.148,2.113-3.234c5.033-7.474,10.077-14.947,14.036-20.436s6.668-9.096,6.668-9.096
			s-2.266,3.912-5.804,9.668c-3.526,5.781-8.442,13.336-13.37,20.879c-0.736,1.086-1.46,2.137-2.172,3.223l0.981,0.666
			c0.689-1.086,1.413-2.172,2.113-3.258c5.033-7.474,10.112-14.936,14.048-20.424c3.935-5.512,6.667-9.107,6.667-9.107
			s-2.276,3.9-5.814,9.668c-3.538,5.77-8.431,13.336-13.37,20.879c-0.725,1.074-1.448,2.148-2.184,3.211l1.155,0.76
			c0.689-1.074,1.413-2.16,2.103-3.246c5.056-7.474,10.124-14.936,14.07-20.424c3.936-5.5,6.656-9.119,6.656-9.119
			s-2.277,3.899-5.815,9.668c-3.538,5.757-8.431,13.336-13.37,20.891c-0.735,1.074-1.448,2.137-2.184,3.211l0.981,0.666
			c0.712-1.086,1.412-2.172,2.125-3.246c5.044-7.474,10.101-14.936,14.047-20.436c3.959-5.5,6.68-9.107,6.68-9.107
			s-2.277,3.911-5.815,9.668c-3.538,5.78-8.454,13.336-13.394,20.879c-0.712,1.074-1.436,2.137-2.148,3.234l0.876,0.596
			c0.712-1.086,1.425-2.172,2.113-3.27c5.068-7.474,10.124-14.936,14.071-20.424c3.946-5.488,6.679-9.096,6.679-9.096
			s-2.276,3.9-5.826,9.668c-3.526,5.758-8.442,13.324-13.37,20.879c-0.736,1.074-1.46,2.148-2.161,3.223l2.499,1.658l25.152-37.893
			l-55.396-36.759L186.349,257.039z"/>
		<path d="M254.888,314.665c0-7.228-4.402-14.083-8.699-18.438l-5.29,7.613l-1.401-0.992l-51.355-34.225
			c-1.244,3.246-1.542,4.962-1.746,8.465c-0.911,14.854,11.514,54.264,41.214,61.83c-9.996,16.664,4.25,23.027,4.25,23.027
			s26.659,3.34,15.753-27.266C243.678,331.947,254.888,333.465,254.888,314.665z"/>
		<path d="M192.053,232.621l11.286-16.639l-3.334-3.037l9.949-13.206c2.978-10.393,17.516-27.272,16.453-46.925
			c-1.215-22.438-20.902-53.954-20.902-53.954s0.298-101.246-68.813-98.817C67.576,2.472,46.364,114.607,45.757,127.954
			c-0.613,13.33,1.815,33.338,1.815,33.338s-6.078,1.215-5.465,6.668c0.607,5.465,5.763,10.918,6.072,15.163
			c0.31,4.25-12.734,3.34-12.133,9.108c0.607,5.746,9.097,7.871,7.876,12.121c-1.22,4.238-17.574,8.793-16.979,23.039
			c0.607,14.246,25.159,27.593,26.665,43.648c1.518,16.057-21.509,26.063-23.641,43.042c-2.125,16.968,28.183,27.278,28.498,42.738
			c0.298,15.448-20.009,23.938-20.009,23.938s53.055-0.911,33.945-61.234c-3.333-6.061,30.314-39.096,18.801-70.32
			c11.514-8.489,0-27.896,0-27.896s11.741-9.4,11.514-25.76c-0.24-16.371-11.514-37.285-11.514-37.285s25.777-46.382,33.957-67.295
			c28.509,10.609,53.364-43.047,53.364-43.047s21.812,36.374,20.604,75.177c-3.631,6.972-24.236,48.799-23.64,67.29
			C175.817,200.381,183.039,216.344,192.053,232.621z"/>
	</g>
</g>
<g>
</g>
<g>
</g>
<g>
</g>
<g>
</g>
<g>
</g>
<g>
</g>
<g>
</g>
<g>
</g>
<g>
</g>
<g>
</g>
<g>
</g>
<g>
</g>
<g>
</g>
<g>
</g>
<g>
</g>
</svg>
