<?xml version="1.0" encoding="iso-8859-1"?>
<!-- Generator: Adobe Illustrator 16.0.0, SVG Export Plug-In . SVG Version: 6.00 Build 0)  -->
<!DOCTYPE svg PUBLIC "-//W3C//DTD SVG 1.1//EN" "http://www.w3.org/Graphics/SVG/1.1/DTD/svg11.dtd">
<svg version="1.1" id="Capa_1" xmlns="http://www.w3.org/2000/svg" xmlns:xlink="http://www.w3.org/1999/xlink" x="0px" y="0px"
	 width="380.781px" height="380.781px" viewBox="0 0 380.781 380.781" style="enable-background:new 0 0 380.781 380.781;"
	 xml:space="preserve">
<g>
	<g>
		<path d="M195.33,113.719l24.404,23.559c-5.826-19.145-17.842-38.417-17.842-38.417s0.292-101.247-68.802-98.817
			c-69.117,2.44-90.328,114.576-90.936,127.922c-0.613,13.33,1.816,33.338,1.816,33.338s-6.066,1.214-5.454,6.667
			c0.596,5.453,5.751,10.918,6.061,15.163s-12.733,3.322-12.121,9.108c0.607,5.745,9.096,7.858,7.876,12.121
			c-1.221,4.25-17.574,8.793-16.967,23.04c0.613,14.258,25.158,27.592,26.664,43.648c1.519,16.057-21.521,26.063-23.64,43.042
			c-2.114,16.967,28.183,27.277,28.498,42.738c0.298,15.448-20.008,23.95-20.008,23.95s53.043-0.912,33.951-61.235
			c-3.34-6.061,30.308-39.095,18.794-70.319c11.514-8.489,0-27.885,0-27.885s11.741-9.4,11.514-25.76
			c-0.228-16.371-11.514-37.296-11.514-37.296s25.754-46.393,33.934-67.307c28.498,10.609,53.353-43.047,53.353-43.047
			S193.274,78.653,195.33,113.719z"/>
		<path d="M251.298,314.665c0-18.765-29.706-35.137-29.706-35.137s10.603-19.711,7.274-36.981
			c-3.339-17.281-22.14-29.111-23.039-38.803c-0.175-1.751,0.456-3.9,1.366-6.224l-30.547-30.372
			c-2.937,8.869-4.975,17.276-4.771,23.243c0.613,18.502,24.855,57.585,24.855,57.585s-13.026,14.246-13.937,29.111
			c-0.911,14.854,11.508,54.252,41.226,61.842c-9.996,16.664,4.25,23.027,4.25,23.027s26.659,3.34,15.753-27.266
			C240.076,331.959,251.298,333.477,251.298,314.665z"/>
		<path d="M349.362,280.089c-6.411-10.661-39.503-44.91-51.274-50.562c-6.165-2.125-27.709-22.14-24.241-29.835
			c1.237-2.931-9.54,2.581-9.54,2.581l-2.336-2.312c5.313-3.678,27.617-16.587,55.98,4.005c1.67,0.105,4.238-1.378,4.04-2.417
			c-19.909-22.099-65.007-19.682-65.007-19.682s-1.576-3.194-3.234-3.194c-1.541,0.012-8.512,3.054-9.599,3.538l-6.41-6.323
			l5.861-5.967l-2.09-2.055l-5.874,5.955l-1.576-1.541l5.874-5.956l-2.091-2.084l-5.885,5.967l-2.195-2.178l6.002-6.072
			l-2.113-2.067l-6.002,6.072l-1.565-1.542l5.991-6.084l-2.091-2.061l-5.99,6.09l-1.997-1.95l6.002-6.101l-2.09-2.067l-5.99,6.089
			l-1.564-1.535l5.99-6.119l-2.103-2.055l-6.002,6.084l-1.763-1.746l6.002-6.072l-2.102-2.073l-6.002,6.078l-1.565-1.53l5.99-6.09
			l-2.102-2.067l-5.99,6.084l-1.88-1.851l6.002-6.078l-2.102-2.079l-5.991,6.102l-1.564-1.559l6.002-6.084l-2.102-2.067l-5.99,6.072
			l-1.88-1.839l6.002-6.09l-2.102-2.067l-5.99,6.084l-1.564-1.542l5.99-6.113l-2.09-2.055l-5.99,6.101l-2.406-2.371l5.991-6.083
			l-2.09-2.073l-5.99,6.089l-1.565-1.518l6.002-6.113l-2.114-2.055l-5.997,6.084l-3.24-3.188l-2.785,2.809l-8.36-8.227l-0.047,0.046
			c-2.02-1.278-5.465-0.344-8.104,2.335c-2.634,2.674-3.533,6.142-2.213,8.139l-0.047,0.058l8.354,8.232l-2.475,2.511l3.24,3.2
			l-5.99,6.089l2.096,2.067l5.99-6.084l1.576,1.542l-6.002,6.084l2.09,2.073l5.99-6.09l2.417,2.382l-5.979,6.072l2.079,2.055
			l5.99-6.072l1.582,1.541l-6.002,6.102l2.09,2.055l5.991-6.072l1.892,1.839l-5.99,6.083l2.09,2.073l5.99-6.078l1.577,1.547
			l-6.002,6.084l2.097,2.043l5.984-6.072l1.892,1.851l-5.99,6.089l2.096,2.067l5.984-6.083l1.577,1.553l-5.984,6.072l2.084,2.055
			l5.99-6.084l1.787,1.746l-5.979,6.101l2.079,2.067l5.99-6.113l1.564,1.541l-5.979,6.102l2.09,2.067l6.002-6.084l1.985,1.962
			l-5.99,6.083l2.09,2.055l5.991-6.083l1.565,1.564l-5.991,6.061l2.09,2.084l5.99-6.102l2.207,2.178l-6.142,6.212l2.102,2.079
			l6.131-6.207l1.576,1.542l-6.131,6.207l2.078,2.067l6.131-6.212l17.235,16.979l-1.331,1.751l9.225,9.108
			c0,0-5.324,10.836-2.429,9.575c7.66-3.585,27.979,17.679,30.197,23.798c5.804,11.677,40.543,44.256,51.286,50.539
			c10.649,6.188,15.098,12.938,25.596,2.078C362.534,294.977,355.715,290.633,349.362,280.089z"/>
	</g>
</g>
<g>
</g>
<g>
</g>
<g>
</g>
<g>
</g>
<g>
</g>
<g>
</g>
<g>
</g>
<g>
</g>
<g>
</g>
<g>
</g>
<g>
</g>
<g>
</g>
<g>
</g>
<g>
</g>
<g>
</g>
</svg>
