<?xml version="1.0" encoding="iso-8859-1"?>
<!-- Generator: Adobe Illustrator 16.0.0, SVG Export Plug-In . SVG Version: 6.00 Build 0)  -->
<!DOCTYPE svg PUBLIC "-//W3C//DTD SVG 1.1//EN" "http://www.w3.org/Graphics/SVG/1.1/DTD/svg11.dtd">
<svg version="1.1" id="Capa_1" xmlns="http://www.w3.org/2000/svg" xmlns:xlink="http://www.w3.org/1999/xlink" x="0px" y="0px"
	 width="381.526px" height="381.526px" viewBox="0 0 381.526 381.526" style="enable-background:new 0 0 381.526 381.526;"
	 xml:space="preserve">
<g>
	<g>
		<polygon points="221.024,317.355 221.024,316.548 221.153,316.583 248.862,191.487 220.907,185.298 198.021,288.746 
			92.909,288.746 92.909,317.355 140.044,317.355 134.065,350.985 91.543,350.985 76.993,372.786 240.571,372.786 226.022,350.985 
			180.773,350.985 174.807,317.355 		"/>
		<path d="M339.968,347.482v-169.85h7.59v-15.49h-7.59V99.01h31.411V55.618h-20.763c-1.051-9.855-9.283-17.557-19.406-17.557
			c-10.113,0-18.346,7.701-19.396,17.557h-25.374v9.686h-29.52c-1.401-21.176-14.503-44.314-39.212-54.491
			c-33.747-13.907-76.217,1.652-86.188,25.865c-5.751,13.966-0.788,25.912,10.895,36.193c0,0.012,0,0.012,0,0.012
			c0.023,0.012,0.059,0.035,0.082,0.058c4.163,3.649,9.16,7.083,14.83,10.323c0.274,0.152,0.561,0.31,0.835,0.467
			c2.692,1.518,5.511,2.978,8.466,4.402c0.444,0.222,0.922,0.426,1.36,0.642c3.024,1.424,6.136,2.808,9.388,4.163
			c2.079,0.858,4.175,1.688,6.242,2.476c0.525,0.205,1.04,0.356,1.553,0.561c1.547,0.561,3.077,1.127,4.595,1.652
			c0.882,0.286,1.763,0.561,2.639,0.835c1.156,0.368,2.277,0.753,3.41,1.086c1.039,0.31,2.055,0.578,3.095,0.864
			c0.945,0.251,1.903,0.537,2.837,0.765c1.145,0.298,2.254,0.537,3.352,0.777c0.817,0.192,1.623,0.379,2.429,0.549
			c1.156,0.239,2.277,0.409,3.41,0.601c0.747,0.128,1.494,0.263,2.219,0.368c1.132,0.181,2.241,0.263,3.315,0.38
			c0.713,0.076,1.425,0.169,2.103,0.216c1.086,0.099,2.125,0.123,3.176,0.158c0.537,0.012,1.121,0.082,1.635,0.082
			c0.023-0.012,0.023-0.023,0.023-0.035c14.165,0.087,25.281-4.759,30.407-17.195c0.49-1.197,0.678-2.534,1.051-3.777h31.575V99.01
			h36.001v248.472l-41.536,9.084v19.385h100.622v-19.385L339.968,347.482z"/>
		<path d="M220.417,109.531c-12.564-0.584-27.651-4.35-45.12-11.56c-14.421-5.944-25.76-12.325-34.161-19.145
			c-0.304,2.09-0.502,4.198-0.502,6.352c0,24.09,19.524,43.608,43.608,43.608C199.305,128.81,212.594,121.156,220.417,109.531z"/>
		<path d="M98.029,277.839h24.399h38.628h25.981c0,0,22.8-111.592,25.322-123.894c2.522-12.308,1.471-18.24-6.714-18.31
			c-8.186-0.07-40.899,0-40.899,0v0.011l-0.07-0.035c0,0-35.358,74.605-66.724,72.584c-17.06,0.246-16.569,17.68,17.983,18.824
			c7.952,0.256,15.927-4.041,23.512-10.767l-5.932,21.462c-22.146-0.047-50.568,0.082-56.979,0.97
			c-8.933,1.249-49.575,67.249-63.564,90.415H0v19.688h63.459v-19.688h-1.027L98.029,277.839z"/>
	</g>
</g>
<g>
</g>
<g>
</g>
<g>
</g>
<g>
</g>
<g>
</g>
<g>
</g>
<g>
</g>
<g>
</g>
<g>
</g>
<g>
</g>
<g>
</g>
<g>
</g>
<g>
</g>
<g>
</g>
<g>
</g>
</svg>
