<?xml version="1.0" encoding="iso-8859-1"?>
<!-- Generator: Adobe Illustrator 16.0.0, SVG Export Plug-In . SVG Version: 6.00 Build 0)  -->
<!DOCTYPE svg PUBLIC "-//W3C//DTD SVG 1.1//EN" "http://www.w3.org/Graphics/SVG/1.1/DTD/svg11.dtd">
<svg version="1.1" id="Capa_1" xmlns="http://www.w3.org/2000/svg" xmlns:xlink="http://www.w3.org/1999/xlink" x="0px" y="0px"
	 width="375.116px" height="375.115px" viewBox="0 0 375.116 375.115" style="enable-background:new 0 0 375.116 375.115;"
	 xml:space="preserve">
<g>
	<g>
		<path d="M126.556,357.646c-32.188-42.82-55.589-111.633-71.184-201.652c8.729-11.333,15.583-20.674,19.04-23.687
			c8.366-7.257,26.974-29.105,26.974-29.105s5.704,6.306,7.117,4.321c1.431-1.962,60.955-84.589,60.955-84.589
			s-13.452-24.393-23.354-11.058c-5.99,8.081-55.554,74.862-93.662,126.218c-0.152-0.969-0.31-1.933-0.461-2.913
			c-0.923-7.952-11.759-4.391-19.145,9.312c-1.997,5.693-2.575,13.511-2.043,22.782C17.025,185.794,7.759,198.3,7.759,198.3
			s-1.652,6.329,3.334,5.745c7.176-5.418,14.474-12.564,21.445-20.26c9.791,65.053,53.353,171.946,59.436,179.606
			C99.618,372.99,135.741,362.061,126.556,357.646z M42.604,157.168c-2.067-0.374-3.48-2.353-3.095-4.438
			c0.368-2.09,2.353-3.479,4.432-3.106c2.084,0.356,3.491,2.341,3.124,4.432C46.679,156.14,44.67,157.524,42.604,157.168z
			 M105.094,355.895c-2.097-0.373-3.48-2.358-3.124-4.438c0.374-2.09,2.359-3.479,4.449-3.117c2.096,0.361,3.479,2.358,3.112,4.449
			C109.146,354.867,107.161,356.245,105.094,355.895z"/>
		<path d="M229.011,130.48l0.443-14.603l-70.71-2.178l-0.456,14.591l-15.589-7.053l-5.295,170.854l15.951-4.857l-0.467,15.075
			l70.717,2.195l0.479-15.075l1.227,0.047l14.176,5.792l5.301-170.866l-14.549,6.125L229.011,130.48z M211.239,145.485l-11.49-0.344
			l-0.164,5.412c5.605,1.244,9.715,6.282,9.541,12.238c-0.187,5.926-4.613,10.737-10.288,11.619l-0.192,6.218l11.298,0.344
			l-0.234,7.298l-11.292-0.351l-0.298,9.634c4.98,1.658,8.519,6.353,8.343,11.864c-0.175,5.488-3.994,9.995-9.062,11.315
			l-0.251,7.998l11.297,0.352l-0.233,7.285l-11.292-0.338l-0.198,6.48c4.975,1.646,8.513,6.353,8.337,11.841
			c-0.175,5.535-3.982,9.995-9.055,11.339l-0.193,6.305l11.292,0.34l-0.233,7.285l-29.894-0.91l0.228-7.299l11.304,0.34l0.198-6.399
			c-4.746-1.786-8.115-6.388-7.946-11.747c0.176-5.359,3.801-9.738,8.665-11.211l0.204-6.608l-11.298-0.351l0.228-7.287
			l11.298,0.352l0.251-8.128c-4.747-1.751-8.115-6.376-7.952-11.724c0.169-5.36,3.801-9.739,8.659-11.222l0.298-9.745l-11.309-0.344
			l0.228-7.281l11.31,0.344l0.228-7.135c-4.14-2.038-6.913-6.329-6.744-11.222c0.14-4.91,3.182-9.015,7.438-10.819l0.193-6.312
			l-11.111-0.35l0.228-7.281l29.911,0.922L211.239,145.485z"/>
		<path d="M246.457,0l-0.898,38.873l4.414,0.117l37.892,39.69v0.082l2.534,0.058l-0.864,37.367l-4.636-0.105l-0.198,8.74
			l4.647,0.123l-0.176,7.386l-4.647-0.105l-0.198,8.752l4.647,0.093l-0.14,6.078l-4.637-0.111l-0.222,8.717l4.659,0.123
			l-0.233,10.101l-4.636-0.117l-0.21,8.741l4.647,0.117l-0.245,10.095l-4.636-0.123l-0.223,8.74l4.66,0.105l-0.152,6.072
			l-4.647-0.093l-0.198,8.723l4.636,0.105l-0.233,10.089l-4.647-0.105l-0.187,8.758l4.635,0.105l-0.14,6.061l-4.636-0.082
			l-0.222,8.734l4.659,0.105l-0.199,7.859l-4.636-0.117l-0.222,8.734l4.659,0.117l-0.14,6.061l-4.648-0.117l-0.187,8.746
			l4.636,0.105l-0.21,9.33l-4.659-0.105l-0.198,8.746l4.636,0.105l-0.129,6.072l-4.636-0.105l-0.233,8.734l4.647,0.105l-0.21,10.111
			l-4.647-0.116l-0.21,8.77l4.659,0.093l-0.152,6.072l-4.659-0.116l-0.198,8.734l4.647,0.116l-0.187,7.848l-4.647-0.117
			l-0.211,8.734l4.648,0.117l-0.129,6.072l-4.636-0.117l-0.21,8.746l4.624,0.105l-0.07,3.129l27.955,0.654l0.082-3.129l4.647,0.093
			l0.187-8.746l-4.636-0.104l0.141-6.049l4.646,0.116l0.211-8.758l-4.637-0.093l0.176-7.848l4.647,0.094l0.21-8.711l-4.636-0.129
			l0.129-6.072l4.636,0.105l0.198-8.734l-4.636-0.094l0.245-10.101l4.624,0.104l0.211-8.734l-4.637-0.116l0.141-6.072l4.647,0.116
			l0.198-8.723l-4.636-0.104l0.222-9.354l4.624,0.104l0.222-8.723l-4.623-0.128l0.128-6.049l4.636,0.093l0.21-8.723l-4.647-0.104
			l0.188-7.858l4.635,0.105l0.199-8.724l-4.636-0.128l0.14-6.049l4.647,0.116l0.198-8.758l-4.635-0.093l0.233-10.089l4.647,0.105
			l0.198-8.758l-4.636-0.117l0.141-6.049l4.623,0.117l0.211-8.74l-4.647-0.105l0.245-10.106l4.647,0.111l0.187-8.74l-4.636-0.111
			l0.245-10.095l4.647,0.111l0.198-8.729l-4.646-0.105l0.14-6.078l4.647,0.123l0.198-8.746l-4.636-0.105l0.164-7.415l4.647,0.1
			l0.21-8.717l-4.636-0.111l0.864-37.39l3.444,0.087v-0.076h0.012l39.772-37.962l5.079,0.117l0.911-38.861L246.457,0z
			 M288.203,64.306l-23.845-24.989l24.417,0.572L288.203,64.306z M312.375,47.467l-13.604-0.321l0.164-7.03l13.604,0.31
			L312.375,47.467z M322.148,65.17l0.572-24.504l24.486,0.578L322.148,65.17z M359.304,36.421L252.26,33.957l0.152-6.598
			l107.067,2.499L359.304,36.421z M359.561,25.363l-107.044-2.476l0.152-6.574l107.056,2.47L359.561,25.363z M359.818,13.989
			l-107.044-2.476l0.152-6.574l107.056,2.499L359.818,13.989z"/>
	</g>
</g>
<g>
</g>
<g>
</g>
<g>
</g>
<g>
</g>
<g>
</g>
<g>
</g>
<g>
</g>
<g>
</g>
<g>
</g>
<g>
</g>
<g>
</g>
<g>
</g>
<g>
</g>
<g>
</g>
<g>
</g>
</svg>
